<svg width="21" height="25" fill="none" xmlns="http://www.w3.org/2000/svg"><path d="M16.479 25V4.994H0V25h3.838v-1.187c0-1.492 1.17-2.709 2.588-2.709h3.626c1.42 0 2.598 1.217 2.598 2.71V25h3.829ZM4.55 17.848c0 .106-.02.216-.058.314a.816.816 0 0 1-.163.264.76.76 0 0 1-.549.233H1.962a.756.756 0 0 1-.711-.497.873.873 0 0 1-.058-.314V15.95a.87.87 0 0 1 .058-.315.817.817 0 0 1 .163-.264.762.762 0 0 1 .548-.233H3.78a.751.751 0 0 1 .549.233.813.813 0 0 1 .163.264.874.874 0 0 1 .058.315v1.897Zm0-5.61c0 .106-.02.216-.058.314a.754.754 0 0 1-.712.497H1.962a.751.751 0 0 1-.548-.233.805.805 0 0 1-.163-.264.874.874 0 0 1-.058-.315V10.33c0-.106.019-.206.058-.304a.816.816 0 0 1 .413-.447.757.757 0 0 1 .298-.061H3.78c.101 0 .205.02.299.06a.793.793 0 0 1 .413.448.82.82 0 0 1 .058.304v1.907Zm2.01-2a.87.87 0 0 1 .222-.578.763.763 0 0 1 .549-.233h1.625a.757.757 0 0 1 .712.497.874.874 0 0 1 .058.315v1.704c0 .106-.019.206-.058.304a.817.817 0 0 1-.413.447.756.756 0 0 1-.299.06H7.331a.75.75 0 0 1-.299-.06.798.798 0 0 1-.413-.447.82.82 0 0 1-.058-.304V10.24Zm3.214 7.366c0 .107-.02.207-.058.305a.812.812 0 0 1-.414.446.756.756 0 0 1-.298.06H7.33c-.1 0-.205-.02-.298-.06a.812.812 0 0 1-.414-.446.82.82 0 0 1-.058-.305V15.85a.87.87 0 0 1 .058-.314.812.812 0 0 1 .163-.264.763.763 0 0 1 .549-.233h1.674a.751.751 0 0 1 .548.233.807.807 0 0 1 .164.264.877.877 0 0 1 .058.314v1.755Zm2.154-7.274c0-.106.02-.206.058-.304a.817.817 0 0 1 .414-.447.757.757 0 0 1 .298-.061h1.818c.1 0 .205.02.298.06a.794.794 0 0 1 .414.448.82.82 0 0 1 .058.304v1.907c0 .107-.02.217-.058.315a.754.754 0 0 1-.712.497h-1.818a.752.752 0 0 1-.548-.233.805.805 0 0 1-.164-.264.874.874 0 0 1-.058-.315V10.33Zm.472 8.268a.762.762 0 0 1-.414-.436.873.873 0 0 1-.057-.314V15.95a.87.87 0 0 1 .057-.315.816.816 0 0 1 .164-.264.762.762 0 0 1 .548-.233h1.818a.751.751 0 0 1 .549.233.814.814 0 0 1 .163.264.873.873 0 0 1 .058.315v1.897c0 .106-.02.216-.058.314a.817.817 0 0 1-.163.264.76.76 0 0 1-.549.233h-1.818c-.1 0-.205-.02-.298-.06ZM19.953 0H4.08L1.03 3.37h15.86L19.953 0ZM18.017 23.785 21 20.49V1.194l-2.983 3.282v19.309Z" fill="#fff"/><path d="M6.424 22.724c-.583 0-1.05.492-1.05 1.09v1.183h5.732v-1.182c0-.599-.464-1.091-1.052-1.091h-3.63Z" fill="#fff"/></svg>