<svg width="27" height="27" fill="none" xmlns="http://www.w3.org/2000/svg"><path d="M25.293 26.707a1 1 0 0 0 1.414-1.414l-1.414 1.414Zm1.414-1.414-7.328-7.328-1.414 1.415 7.328 7.327 1.414-1.414ZM20.69 11.345a9.345 9.345 0 0 1-9.345 9.345v2c6.265 0 11.345-5.08 11.345-11.345h-2Zm-9.345 9.345A9.345 9.345 0 0 1 2 11.345H0C0 17.61 5.08 22.69 11.345 22.69v-2ZM2 11.345A9.345 9.345 0 0 1 11.345 2V0C5.079 0 0 5.08 0 11.345h2ZM11.345 2a9.345 9.345 0 0 1 9.345 9.345h2C22.69 5.079 17.61 0 11.345 0v2Z" fill="#fff"/></svg>