<svg width="25" height="25" fill="none" xmlns="http://www.w3.org/2000/svg"><path d="M6.937 23.492 5.42 25 0 19.758l3.882-3.827a5.923 5.923 0 0 1 2.863-1.571 5.95 5.95 0 0 1 3.265.18l.853.297h5.234a1.662 1.662 0 0 1 1.187.498 1.637 1.637 0 0 1 .465 1.193 1.681 1.681 0 0 1-.539 1.138c-.32.296-.744.458-1.182.451h-3.14a.636.636 0 1 0 0 1.276h3.15a3.005 3.005 0 0 0 2.068-.81c.56-.523.894-1.24.936-2.001v-.041l2.913-3.258a1.767 1.767 0 0 1 2.423-.234 1.706 1.706 0 0 1 .616 1.175 1.69 1.69 0 0 1-.418 1.258l-5.817 6.633a4.105 4.105 0 0 1-3.083 1.388l-8.739-.01ZM18.95 9.072c0-.322-.128-.63-.357-.857a1.225 1.225 0 0 0-.863-.355H15.93V6.074a1.208 1.208 0 0 0-.376-.82 1.225 1.225 0 0 0-1.686 0c-.227.215-.362.509-.376.82V7.86h-1.799a1.229 1.229 0 0 0-.899.334 1.212 1.212 0 0 0-.279 1.353 1.212 1.212 0 0 0 .694.658c.155.057.32.083.484.076h1.799v1.785c.014.312.149.606.376.821a1.225 1.225 0 0 0 1.686 0c.227-.215.362-.51.376-.82V10.28h1.799c.323 0 .633-.128.862-.354.229-.227.357-.535.358-.856ZM7.25 2.356v1.316H5.924a.903.903 0 0 0-.636.262.89.89 0 0 0 0 1.263.903.903 0 0 0 .636.261h1.326v1.317a.89.89 0 0 0 .263.63.903.903 0 0 0 1.272 0 .89.89 0 0 0 .263-.63V5.454h1.319a.903.903 0 0 0 .635-.261.89.89 0 0 0-.636-1.525H9.043v-1.31a.89.89 0 0 0-.264-.632.903.903 0 0 0-1.272 0 .89.89 0 0 0-.263.631h.005ZM18.591 0c-.204 0-.4.08-.545.224a.763.763 0 0 0-.226.541v1.133h-1.14c-.205 0-.401.08-.546.224a.763.763 0 0 0 .545 1.307h1.141V4.56c0 .203.081.398.226.541a.774.774 0 0 0 1.316-.54V3.428h1.14a.776.776 0 0 0 .713-.473.76.76 0 0 0-.417-1 .776.776 0 0 0-.295-.058h-1.141V.765a.762.762 0 0 0-.226-.54.773.773 0 0 0-.545-.225Z" fill="#fff"/></svg>