<svg width="86" height="27" fill="none" xmlns="http://www.w3.org/2000/svg"><path d="M45.399 6.705a1.727 1.727 0 1 1-3.452 0c0-.961.743-1.736 1.725-1.736.983.027 1.727.801 1.727 1.736Zm-7.117 3.5v.427s-.823-1.069-2.576-1.069c-2.894 0-5.151 2.218-5.151 5.29 0 3.045 2.23 5.288 5.151 5.288 1.78 0 2.576-1.095 2.576-1.095v.454c0 .214.16.374.372.374h2.15V9.83h-2.15a.383.383 0 0 0-.372.375Zm0 6.437c-.398.588-1.195 1.096-2.15 1.096-1.7 0-3.001-1.069-3.001-2.886 0-1.816 1.301-2.885 3-2.885.93 0 1.78.535 2.15 1.096v3.58Zm4.116-6.812h2.549v10.045h-2.55V9.83Zm38.078-.267c-1.752 0-2.576 1.069-2.576 1.069V4.996h-2.549v14.879h2.151a.38.38 0 0 0 .372-.375v-.453s.823 1.095 2.575 1.095c2.895 0 5.152-2.244 5.152-5.289 0-3.045-2.257-5.29-5.125-5.29Zm-.424 8.148c-.983 0-1.753-.507-2.152-1.095v-3.58c.399-.534 1.248-1.095 2.151-1.095 1.7 0 3 1.068 3 2.885 0 1.816-1.3 2.885-3 2.885Zm-6.028-3.793V19.9h-2.55v-5.69c0-1.655-.53-2.324-1.964-2.324-.77 0-1.566.401-2.072.989v6.999H64.89V9.83h2.017c.213 0 .372.187.372.374v.427c.744-.775 1.726-1.069 2.708-1.069 1.116 0 2.045.321 2.789.962.902.748 1.248 1.71 1.248 3.393ZM58.702 9.563c-1.752 0-2.576 1.069-2.576 1.069V4.996h-2.549v14.879h2.15a.381.381 0 0 0 .373-.375v-.453s.823 1.095 2.575 1.095c2.895 0 5.152-2.244 5.152-5.289.026-3.046-2.23-5.29-5.125-5.29Zm-.425 8.148c-.983 0-1.752-.507-2.15-1.095v-3.58c.398-.534 1.247-1.095 2.15-1.095 1.7 0 3 1.068 3 2.885 0 1.816-1.3 2.885-3 2.885Zm-6.904-8.148c.77 0 1.168.134 1.168.134v2.377s-2.124-.721-3.451.802V19.9h-2.55V9.831h2.151a.38.38 0 0 1 .372.373v.428c.478-.561 1.514-1.069 2.31-1.069ZM24.9 18.966c-.132-.32-.265-.668-.398-.962-.213-.48-.425-.935-.61-1.362l-.027-.026a279.186 279.186 0 0 0-5.869-12.074l-.08-.16c-.217-.416-.43-.835-.636-1.256-.266-.481-.531-.988-.956-1.47C15.473.588 14.25 0 12.95 0c-1.327 0-2.522.588-3.398 1.603-.399.48-.69.988-.956 1.469-.207.421-.42.84-.637 1.256l-.08.16c-2.045 4.007-4.036 8.067-5.868 12.074l-.027.053c-.186.428-.399.882-.611 1.362-.133.294-.265.615-.398.962-.345.988-.452 1.923-.319 2.885a5.671 5.671 0 0 0 3.452 4.434c.691.295 1.408.428 2.151.428a6.986 6.986 0 0 0 3.346-.961c1.09-.615 2.125-1.496 3.293-2.778 1.168 1.282 2.23 2.163 3.293 2.778a6.988 6.988 0 0 0 3.346.961c.743 0 1.487-.133 2.15-.427 1.86-.749 3.16-2.458 3.453-4.435.21-.935.104-1.87-.24-2.858Zm-11.975 1.39c-1.434-1.817-2.364-3.527-2.682-4.969-.133-.614-.16-1.149-.08-1.63.053-.427.213-.801.425-1.122.505-.72 1.354-1.175 2.337-1.175.983 0 1.859.428 2.337 1.175.213.32.372.695.425 1.123.08.48.053 1.041-.08 1.63-.32 1.414-1.249 3.124-2.682 4.967Zm10.594 1.255a3.966 3.966 0 0 1-2.416 3.125c-.637.267-1.328.348-2.018.267a5.21 5.21 0 0 1-2.018-.694c-.956-.535-1.912-1.362-3.027-2.591 1.752-2.164 2.815-4.141 3.213-5.904a6.722 6.722 0 0 0 .133-2.27 4.348 4.348 0 0 0-.717-1.817c-.824-1.203-2.205-1.897-3.744-1.897-1.54 0-2.921.722-3.744 1.897a4.35 4.35 0 0 0-.717 1.816c-.106.695-.08 1.47.132 2.271.398 1.763 1.487 3.767 3.213 5.93-1.089 1.229-2.071 2.057-3.027 2.592-.69.4-1.354.614-2.018.694a4.224 4.224 0 0 1-2.018-.267 3.966 3.966 0 0 1-2.416-3.126 4.444 4.444 0 0 1 .239-2.083c.08-.267.212-.534.345-.855.186-.427.398-.882.61-1.336l.027-.053c1.832-3.98 3.797-8.04 5.842-11.993l.08-.161c.212-.4.425-.828.637-1.229.212-.427.451-.828.743-1.175.558-.64 1.301-.989 2.125-.989.823 0 1.566.348 2.124.989.292.348.531.749.744 1.175.212.401.425.829.637 1.229l.08.16a354.726 354.726 0 0 1 5.815 12.021v.027c.213.428.398.908.61 1.336.134.32.267.587.346.854.212.694.292 1.362.185 2.057Z" fill="#718087"/></svg>