<svg width="71" height="24" fill="none" xmlns="http://www.w3.org/2000/svg"><path d="M14.681 11.845c1.18.095 2.172.57 3.022 1.47.85.901 1.274 2.134 1.274 3.7 0 1.896-.613 3.461-1.888 4.6-1.274 1.137-3.068 1.706-5.476 1.706H0V.843h11.566c2.03 0 3.682.57 4.91 1.66 1.227 1.138 1.84 2.608 1.84 4.458 0 1.422-.377 2.513-1.18 3.367-.802.853-1.605 1.28-2.502 1.375l.047.142Zm-9.158-1.707h4.815c.803 0 1.464-.237 1.983-.711.472-.475.755-1.044.755-1.85 0-.711-.236-1.233-.708-1.66-.472-.427-1.085-.616-1.793-.616H5.523v4.837Zm5.099 8.726c.85 0 1.558-.238 2.03-.664.472-.427.708-1.044.708-1.85 0-.759-.236-1.328-.756-1.754-.472-.427-1.133-.664-1.888-.664H5.523v4.932h5.099Zm27.474 4.457h-5.334V21.71c-1.322 1.423-3.069 2.134-5.146 2.134-1.982 0-3.54-.664-4.72-1.944-1.18-1.28-1.794-2.988-1.794-5.075V6.487h5.287v9.2c0 .996.283 1.802.803 2.419.519.616 1.227.9 2.077.9 1.085 0 1.935-.378 2.549-1.137.613-.759.897-1.945.897-3.557V6.486h5.334l.047 16.835Zm16.476 0H40.41v-.995l6.656-11.572h-6.468V6.486h13.88v.996L47.82 19.053h6.704v4.268h.047Zm16.428 0H56.885v-.995l6.609-11.572h-6.467V6.486h13.879v.996l-6.657 11.571h6.704L71 23.321Z" fill="#718087"/></svg>