<svg width="98" height="19" fill="none" xmlns="http://www.w3.org/2000/svg"><path d="M32.919.292v7.186H22.908V.292L19.262.289v18.118h3.646v-7.784h10.011v7.784h3.652V.292H32.92ZM81.426.293v18.11h15.996l-2.026-3.188H85.082v-4.591h9.988v-3.07h-9.988V3.405H95.38L97.364.293H81.426ZM5.708.288C1.916.288 0 2.594 0 5.948v6.764c0 3.882 2.469 5.695 5.69 5.695h11.44l-2.121-3.313H6.396c-1.83 0-2.626-.66-2.626-2.709V6.25c0-1.979.67-2.751 2.675-2.751h8.653l2.037-3.21H5.708ZM65.423.283c-2.19 0-4.435 1.317-4.435 4.703v.87c0 3.53 2.16 4.878 4.321 4.887h7.587c.787 0 1.427.13 1.427 1.463v1.538c-.02 1.197-.617 1.47-1.455 1.47h-9.98l-2.044 3.189h12.26c2.956 0 4.963-1.471 4.963-4.868v-1.249c0-3.284-1.865-4.836-4.756-4.836h-7.244c-.803 0-1.363-.22-1.363-1.409V4.788c0-1.013.384-1.382 1.32-1.382l9.504-.004L77.515.279 65.423.283ZM47.165.293l-8.59 18.114h4.06l1.673-3.741h9.335l1.668 3.74h4.078L50.778.294h-3.613Zm1.801 3.76 3.301 7.53h-6.58l3.28-7.53Z" fill="#718087"/></svg>