<svg width="50" height="27" fill="none" xmlns="http://www.w3.org/2000/svg"><path d="M34.011 20a3.835 3.835 0 0 0-1.844-.464c-1.418 0-2.4.986-2.4 2.317 0 1.29.94 2.32 2.4 2.32a3.884 3.884 0 0 0 1.844-.462v2.332a7.037 7.037 0 0 1-1.998.309c-2.466 0-4.63-1.7-4.63-4.5 0-2.594 1.958-4.497 4.63-4.497a6.665 6.665 0 0 1 1.998.312V20Zm-22.883 0a3.809 3.809 0 0 0-1.842-.464c-1.42 0-2.403.986-2.403 2.317 0 1.29.942 2.32 2.403 2.32a3.858 3.858 0 0 0 1.842-.462v2.332c-.649.2-1.322.303-2 .309-2.464 0-4.626-1.7-4.626-4.5 0-2.594 1.958-4.497 4.626-4.497a6.642 6.642 0 0 1 2 .312V20Zm29.78-.432a2.246 2.246 0 0 0-2.267 2.285 2.246 2.246 0 0 0 2.267 2.287 2.248 2.248 0 0 0 2.268-2.287 2.247 2.247 0 0 0-2.268-2.285Zm4.59 2.285c0 2.485-1.918 4.5-4.59 4.5-2.671 0-4.589-2.015-4.589-4.5 0-2.481 1.917-4.497 4.589-4.497 2.671 0 4.59 2.015 4.59 4.497Zm-20.85-2.368c-.033-.01-.956-.265-1.714-.265-.879 0-1.357.294-1.357.711 0 .53.645.714 1.005.828l.605.192c1.424.453 2.072 1.427 2.072 2.486 0 2.182-1.92 2.916-3.598 2.916a13.167 13.167 0 0 1-2.365-.238v-2c.193.05 1.112.325 2.07.325 1.09 0 1.592-.32 1.592-.812 0-.44-.434-.694-.978-.865-.132-.044-.332-.107-.468-.151-1.22-.386-2.239-1.104-2.239-2.542 0-1.625 1.217-2.716 3.238-2.716.72.01 1.437.103 2.137.277v1.854ZM16.334 26.199H14.14V17.51h2.193V26.2ZM1.857 7.406c.204.204.32.48.32.767v2.28a1.089 1.089 0 0 1-2.177 0v-2.28a1.087 1.087 0 0 1 1.857-.767ZM8.073 4.764c.054.132.082.274.082.417v5.273a1.088 1.088 0 1 1-2.177 0V5.181a1.088 1.088 0 0 1 2.095-.417ZM13.815.318c.204.203.319.479.32.767v11.537a1.09 1.09 0 0 1-2.178 0V1.085a1.088 1.088 0 0 1 1.858-.767ZM20.03 4.764c.055.132.083.274.083.417v-.002 5.274a1.089 1.089 0 0 1-2.177 0V5.18a1.088 1.088 0 0 1 2.094-.416ZM25.768 7.407c.203.204.317.48.317.766v2.28a1.085 1.085 0 1 1-2.17 0v-2.28a1.087 1.087 0 0 1 1.853-.766ZM31.739 4.431c.203.198.32.467.327.75v5.273a1.083 1.083 0 0 1-1.085 1.085 1.085 1.085 0 0 1-1.085-1.085V5.181a1.086 1.086 0 0 1 1.843-.75ZM37.73.318c.204.203.319.48.319.767v11.537a1.086 1.086 0 1 1-2.17 0V1.085A1.085 1.085 0 0 1 37.73.318ZM43.945 4.763c.056.132.085.274.085.418v5.273a1.088 1.088 0 0 1-1.099 1.088 1.086 1.086 0 0 1-1.084-1.088V5.18a1.085 1.085 0 0 1 1.084-1.085 1.089 1.089 0 0 1 1.014.668ZM49.682 7.405c.204.204.318.48.318.768v2.281a1.085 1.085 0 1 1-2.172 0v-2.28a1.086 1.086 0 0 1 1.854-.769ZM48.745 25.19h-.388.388ZM48.357 25.19v1.008-1.008ZM48.357 26.198h-.16.16ZM48.198 26.198V25.19v1.008ZM48.198 25.19h-.39.39ZM47.809 25.19v-.136.137ZM47.809 25.054h.936-.936ZM49.075 25.053l.343.939-.343-.939ZM49.418 25.992h.005-.005ZM49.423 25.992l.331-.938-.33.938ZM49.755 25.054h.244-.245ZM49.999 25.054v1.143-1.143ZM49.999 26.197h-.163.163ZM49.836 26.197v-.937.937ZM49.836 25.26h-.006.006ZM49.83 25.26l-.347.937.347-.937ZM49.483 26.197h-.15.15ZM49.333 26.197l-.34-.937.34.937ZM48.993 25.26h-.007.007ZM48.986 25.26v.937-.937ZM48.986 26.197h-.16.16ZM48.826 26.197v-1.143 1.143Z" fill="#666"/><path d="m49.075 25.053.343.939h.005l.331-.938H50v1.143h-.163v-.937h-.006l-.347.937h-.15l-.34-.937h-.007v.937h-.16v-1.143h.25ZM48.745 25.19h-.388v1.008h-.16V25.19h-.388v-.136h.936v.136Z" fill="#666"/></svg>