<svg width="48" height="19" fill="none" xmlns="http://www.w3.org/2000/svg"><path fill-rule="evenodd" clip-rule="evenodd" d="M14.449 5.72S15.766 3.983 18.824 4c3.059.016 5.895 2.063 5.829 5.586a6.73 6.73 0 0 1-.082.933c.818-2.203 4.859-2.503 6.066-2.511.71 0 2.84-.008 2.84-.008.01-1.43-.442-2.387-2.922-2.43C28.44 5.53 27.898 6.586 27.77 7h-2.59c.66-3.398 5.543-2.984 5.543-2.984 5.086.2 5.211 2.815 5.27 4.047l.007.132V15l-2.254.012-.101-1.832c-.961 1.16-2.254 1.808-4.524 1.82-2.21.011-5.017-.906-4.695-3.82-.7 2.492-2.937 3.82-5.653 3.82-3.245 0-4.355-1.734-4.355-1.734L14.316 15H12v-5H2.44s.138 3.399 3.63 3.464c2.715.048 3.207-1.78 3.207-1.78l2.508-.008S11.519 15 6.059 15C-.293 15 .004 9.703.004 9.703-.027 8.527-.004 4 6 4c5.024 0 5.88 3.43 6 5.104V0h2.449v5.72Zm.016 3.823s-.063 3.934 3.8 3.887c3.86-.047 3.868-3.805 3.868-3.805s.058-4.148-3.875-4.05c-3.933.097-3.793 3.968-3.793 3.968ZM6.148 5.551c-3.453 0-3.625 2.965-3.625 2.965h7.063s0-2.97-3.438-2.965Zm20.797 6.094c.145 1.871 2.602 1.867 2.602 1.867 4.402.054 3.953-3.949 3.956-3.949l-2.78.003s-3.93.082-3.778 2.079Z" fill="#666"/><path d="M34.438 4h2.804l4.106 8.184L45.465 4H48l-7.426 15H37.86l2.149-4.465L34.438 4Z" fill="#666"/></svg>