<svg width="76" height="17" fill="none" xmlns="http://www.w3.org/2000/svg"><path d="M12.776.343h2.884v9.352c0 4.92-3.075 6.648-7.537 6.648C3.677 16.343.6 14.616.6 9.695V.718c0-.26.127-.375.382-.375h2.885v9.206c0 2.949 1.275 4.17 4.255 4.17 2.996 0 4.27-1.221 4.27-4.17V.718c0-.26.128-.375.383-.375Zm32.653 2.558v3.943h7.298c.128 0 .176.065.128.196l-.797 2.02c-.08.18-.191.26-.43.26H47.34c-1.402 0-1.912.44-1.912 1.402v2.786h9.88c.128 0 .175.065.128.196l-.83 2.101c-.079.18-.19.261-.43.261h-10.82c-.829 0-1.147-.293-1.147-.929V1.435c0-.766.414-1.092 1.498-1.092h11.601c.128 0 .175.065.128.18l-.83 2.117c-.079.18-.19.261-.43.261H45.43Zm-9.163 8.815c0 3.144-2.168 4.35-5.211 4.35H22.99c-.845 0-1.147-.293-1.147-.929V1.435c0-.766.398-1.092 1.497-1.092h6.55c2.869 0 5.642.505 5.642 3.992 0 1.499-.526 2.77-1.785 3.438 1.737.472 2.518 2.069 2.518 3.943ZM25.015 6.893h5.115c1.69 0 2.168-.668 2.168-2.037 0-1.368-.479-2.02-2.168-2.02h-5.115v4.057Zm8.016 4.53c0-1.45-.494-2.168-2.311-2.168h-3.777c-1.402 0-1.928.44-1.928 1.402v2.916h5.705c1.817 0 2.31-.717 2.31-2.15Zm42.39 4.643h-2.933c-.24 0-.335-.098-.43-.26L68.95 10.07h-2.852c-1.403 0-1.929.44-1.929 1.401v4.595h-2.804c-.255 0-.383-.13-.383-.375V1.435c0-.766.415-1.092 1.498-1.092h6.582c3.84 0 6.151 1.026 6.151 4.84 0 2.948-1.386 4.105-3.107 4.561l3.458 6.045c.063.098.063.277-.144.277ZM71.977 5.247c0-1.596-.43-2.379-2.438-2.379h-5.37v4.758h5.37c2.008 0 2.438-.766 2.438-2.379Z" fill="#718087"/></svg>