<svg width="12" height="21" fill="none" xmlns="http://www.w3.org/2000/svg"><path d="M3.119 11.726H.545c-.416 0-.546-.156-.546-.546V8.034c0-.416.156-.546.546-.546h2.574V5.2c0-1.04.182-2.028.702-2.938.546-.936 1.326-1.56 2.314-1.924C6.785.104 7.435 0 8.137 0h2.548c.364 0 .52.156.52.52v2.964c0 .364-.156.52-.52.52-.702 0-1.404 0-2.106.026-.702 0-1.066.338-1.066 1.066-.026.78 0 1.534 0 2.34h3.016c.416 0 .572.156.572.572v3.146c0 .416-.13.546-.572.546H7.513v8.476c0 .442-.13.598-.598.598h-3.25c-.39 0-.546-.156-.546-.546v-8.502Z" fill="#000"/></svg>