<svg width="19" height="18" fill="none" xmlns="http://www.w3.org/2000/svg"><g clip-path="url(#a)"><path d="M17.099 0h-15.2c-1.045 0-1.9.81-1.9 1.8v14.4c0 .99.855 1.8 1.9 1.8h15.2c1.045 0 1.9-.81 1.9-1.8V1.8c0-.99-.855-1.8-1.9-1.8Zm-11.4 15.3h-2.85V7.2h2.85v8.1ZM4.274 5.67c-.95 0-1.71-.72-1.71-1.62 0-.9.76-1.62 1.71-1.62s1.71.72 1.71 1.62c0 .9-.76 1.62-1.71 1.62Zm11.875 9.63h-2.85v-4.77c0-.72-.665-1.35-1.425-1.35s-1.425.63-1.425 1.35v4.77h-2.85V7.2h2.85v1.08c.475-.72 1.52-1.26 2.375-1.26 1.805 0 3.325 1.44 3.325 3.15v5.13Z" fill="#000"/></g><defs><clipPath id="a"><path fill="#fff" transform="translate(-.001)" d="M0 0h19v18H0z"/></clipPath></defs></svg>