<svg width="20" height="16" fill="none" xmlns="http://www.w3.org/2000/svg"><path d="M19.46 1.82a8.089 8.089 0 0 1-2.235.613A3.858 3.858 0 0 0 18.932.289a7.752 7.752 0 0 1-2.46.939 3.878 3.878 0 0 0-6.71 2.653c0 .307.025.603.09.884A10.98 10.98 0 0 1 1.854.707a3.906 3.906 0 0 0-.531 1.961c0 1.344.692 2.535 1.723 3.224a3.831 3.831 0 0 1-1.753-.478v.043a3.897 3.897 0 0 0 3.109 3.812c-.316.086-.66.127-1.018.127-.248 0-.499-.014-.734-.066.503 1.537 1.929 2.666 3.625 2.703a7.795 7.795 0 0 1-4.81 1.654c-.318 0-.623-.014-.929-.053a10.921 10.921 0 0 0 5.952 1.741c7.138 0 11.041-5.913 11.041-11.04 0-.17-.006-.336-.014-.5a7.74 7.74 0 0 0 1.945-2.015Z" fill="#000"/></svg>